<svg version="1.1" xmlns="http://www.w3.org/2000/svg" xmlns:xlink="http://www.w3.org/1999/xlink" width="47.34396" height="87.55484" viewBox="0,0,47.34396,87.55484"><g transform="translate(-216.42309,-131.27904)"><g data-paper-data="{&quot;isPaintingLayer&quot;:true}" fill="none" fill-rule="nonzero" stroke-linejoin="miter" stroke-miterlimit="10" stroke-dasharray="" stroke-dashoffset="0" style="mix-blend-mode: normal"><path d="M216.42309,218.83388v-87.55484h47.34396v87.55484z" stroke="none" stroke-width="0" stroke-linecap="butt"/><path d="M239.65528,192.49683l0.15623,-24.97881" stroke="#000000" stroke-width="5" stroke-linecap="round"/><path d="M250.08748,170.14124l-9.7929,2.28058" stroke="#000000" stroke-width="5" stroke-linecap="round"/><path d="M239.95895,192.87757l3.393,11.54501l-7.70747,4.38938" stroke="#000000" stroke-width="5" stroke-linecap="round"/><path d="M247.39041,188.12406l-11.76688,-7.923l5.39381,-12.5724" data-paper-data="{&quot;index&quot;:null}" stroke="#000000" stroke-width="5" stroke-linecap="round"/><path d="M240.86401,192.87748l3.61991,9.74059l1.83659,8.47785" data-paper-data="{&quot;index&quot;:null}" stroke="#000000" stroke-width="5" stroke-linecap="round"/><path d="M228.98259,155.12505c0,-6.33703 5.13718,-11.47422 11.47422,-11.47422c6.33703,0 11.47422,5.13718 11.47422,11.47422c0,6.33703 -5.13718,11.47422 -11.47422,11.47422c-6.33703,0 -11.47422,-5.13718 -11.47422,-11.47422z" stroke="#000000" stroke-width="5" stroke-linecap="butt"/></g></g></svg>