<svg version="1.1" xmlns="http://www.w3.org/2000/svg" xmlns:xlink="http://www.w3.org/1999/xlink" width="47.43591" height="87.55484" viewBox="0,0,47.43591,87.55484"><g transform="translate(-216.09962,-136.45098)"><g data-paper-data="{&quot;isPaintingLayer&quot;:true}" fill="none" fill-rule="nonzero" stroke-linejoin="miter" stroke-miterlimit="10" stroke-dasharray="" stroke-dashoffset="0" style="mix-blend-mode: normal"><path d="M239.03521,192.53444l5.90895,-24.27034" stroke="#000000" stroke-width="5" stroke-linecap="round"/><path d="M261.03553,170.98509l-17.66866,-3.03492" stroke="#000000" stroke-width="5" stroke-linecap="round"/><path d="M234.761,184.6812l-2.90378,-9.06467l13.79029,-7.07207" data-paper-data="{&quot;index&quot;:null}" stroke="#000000" stroke-width="5" stroke-linecap="round"/><path d="M240.40722,192.87748" data-paper-data="{&quot;index&quot;:null}" stroke="#000000" stroke-width="5" stroke-linecap="round"/><path d="M237.04074,153.65641c1.46051,-6.16643 7.64337,-9.98134 13.80981,-8.52083c6.16643,1.46051 9.98134,7.64337 8.52083,13.80981c-1.46051,6.16643 -7.64337,9.98134 -13.80981,8.52083c-6.16643,-1.46051 -9.98134,-7.64337 -8.52083,-13.80981z" stroke="#000000" stroke-width="5" stroke-linecap="butt"/><path d="M216.09962,224.00582v-87.55484h47.34396v87.55484z" stroke="none" stroke-width="0" stroke-linecap="butt"/><path d="M241.40268,192.33127l7.31776,9.55249l-5.61336,5.26862" stroke="#000000" stroke-width="5" stroke-linecap="round"/><path d="M239.41294,193.53936l1.06814,10.75616l0.20999,9.56458" data-paper-data="{&quot;index&quot;:null}" stroke="#000000" stroke-width="5" stroke-linecap="round"/></g></g></svg>