<svg version="1.1" xmlns="http://www.w3.org/2000/svg" xmlns:xlink="http://www.w3.org/1999/xlink" width="47.34396" height="87.55484" viewBox="0,0,47.34396,87.55484"><g transform="translate(-216.32802,-136.22258)"><g data-paper-data="{&quot;isPaintingLayer&quot;:true}" fill="none" fill-rule="nonzero" stroke-linejoin="miter" stroke-miterlimit="10" stroke-dasharray="" stroke-dashoffset="0" style="mix-blend-mode: normal"><path d="M239.49729,192.76668l-3.24427,-24.76772" stroke="#000000" stroke-width="5" stroke-linecap="round"/><path d="M234.4188,168.37007l-9.18466,12.84792l-4.99882,-3.81428" stroke="#000000" stroke-width="5" stroke-linecap="round"/><path d="M239.73055,192.87754l-2.77391,13.60064l-8.39268,6.67343" stroke="#000000" stroke-width="5" stroke-linecap="round"/><path d="M236.97329,168.01918l6.85563,8.98221l2.24712,10.45531" data-paper-data="{&quot;index&quot;:null}" stroke="#000000" stroke-width="5" stroke-linecap="round"/><path d="M255.91349,213.60837l-15.50627,-20.73089" data-paper-data="{&quot;index&quot;:null}" stroke="#000000" stroke-width="5" stroke-linecap="round"/><path d="M223.57531,157.23848c-0.86233,-6.27808 3.52801,-12.06654 9.80611,-12.92887c6.27808,-0.86233 12.06654,3.52801 12.92887,9.80611c0.86233,6.27808 -3.52801,12.06654 -9.80611,12.92887c-6.27808,0.86233 -12.06654,-3.52801 -12.92887,-9.80611z" stroke="#000000" stroke-width="5" stroke-linecap="butt"/><path d="M216.32802,223.77742v-87.55484h47.34396v87.55484z" stroke="none" stroke-width="0" stroke-linecap="butt"/></g></g></svg>