<svg version="1.1" xmlns="http://www.w3.org/2000/svg" xmlns:xlink="http://www.w3.org/1999/xlink" width="47.34396" height="87.55484" viewBox="0,0,47.34396,87.55484"><g transform="translate(-216.42309,-131.27903)"><g data-paper-data="{&quot;isPaintingLayer&quot;:true}" fill="none" fill-rule="nonzero" stroke-linejoin="miter" stroke-miterlimit="10" stroke-dasharray="" stroke-dashoffset="0" style="mix-blend-mode: normal"><path d="M240.45538,165.83388l-0.91077,24.96269" stroke="#000000" stroke-width="5" stroke-linecap="round"/><path d="M237.73587,183.31562l-4.43943,-6.7873l6.02034,-10.14797" stroke="#000000" stroke-width="5" stroke-linecap="round"/><path d="M228.52578,154.00183c0,-6.33703 5.13718,-11.47422 11.47422,-11.47422c6.33703,0 11.47422,5.13718 11.47422,11.47422c0,6.33703 -5.13718,11.47422 -11.47422,11.47422c-6.33703,0 -11.47422,-5.13718 -11.47422,-11.47422z" stroke="#000000" stroke-width="5" stroke-linecap="butt"/><path d="M239.84974,192.17916l11.87388,8.15735l-1.14337,12.85526" stroke="#000000" stroke-width="5" stroke-linecap="round"/><path d="M252.19088,181.79743l-7.1377,-1.58437l-3.29754,-11.66258" data-paper-data="{&quot;index&quot;:null}" stroke="#000000" stroke-width="5" stroke-linecap="round"/><path d="M239.6111,191.63565l-3.42453,13.30698l-10.70707,10.02761" data-paper-data="{&quot;index&quot;:null}" stroke="#000000" stroke-width="5" stroke-linecap="round"/><path d="M216.42309,218.83388v-87.55484h47.34396v87.55484z" stroke="none" stroke-width="0" stroke-linecap="butt"/></g></g></svg>