<svg version="1.1" xmlns="http://www.w3.org/2000/svg" xmlns:xlink="http://www.w3.org/1999/xlink" width="47.34396" height="87.55484" viewBox="0,0,47.34396,87.55484"><g transform="translate(-216.42309,-131.27903)"><g data-paper-data="{&quot;isPaintingLayer&quot;:true}" fill="none" fill-rule="nonzero" stroke-linejoin="miter" stroke-miterlimit="10" stroke-dasharray="" stroke-dashoffset="0" style="mix-blend-mode: normal"><path d="M239.54461,190.79656l0.91077,-24.96269" stroke="#000000" stroke-width="5" stroke-linecap="round"/><path d="M232.60891,185.12879l-1.5208,-8.56125l7.35076,-10.62371" stroke="#000000" stroke-width="5" stroke-linecap="round"/><path d="M228.52578,153.44021c0,-6.33703 5.13718,-11.47422 11.47422,-11.47422c6.33703,0 11.47422,5.13718 11.47422,11.47422c0,6.33703 -5.13718,11.47422 -11.47422,11.47422c-6.33703,0 -11.47422,-5.13718 -11.47422,-11.47422z" stroke="#000000" stroke-width="5" stroke-linecap="butt"/><path d="M239.84974,192.17916l12.99711,5.16205l-0.02013,11.91923" stroke="#000000" stroke-width="5" stroke-linecap="round"/><path d="M254.95577,173.91011l-9.15379,6.30296l-4.23357,-11.66257" data-paper-data="{&quot;index&quot;:null}" stroke="#000000" stroke-width="5" stroke-linecap="round"/><path d="M239.6111,191.63565l-3.98615,12.37095l-10.89428,3.28818" data-paper-data="{&quot;index&quot;:null}" stroke="#000000" stroke-width="5" stroke-linecap="round"/><path d="M216.42309,218.83388v-87.55484h47.34396v87.55484z" stroke="none" stroke-width="0" stroke-linecap="butt"/></g></g></svg>