<svg version="1.1" xmlns="http://www.w3.org/2000/svg" xmlns:xlink="http://www.w3.org/1999/xlink" width="63.25001" height="63.25001" viewBox="0,0,63.25001,63.25001"><g transform="translate(-208.375,-148.37499)"><g data-paper-data="{&quot;isPaintingLayer&quot;:true}" fill-rule="nonzero" stroke="none" stroke-width="0" stroke-linecap="butt" stroke-linejoin="miter" stroke-miterlimit="10" stroke-dasharray="" stroke-dashoffset="0" style="mix-blend-mode: normal"><path d="M271.625,211.625c0,0 -29.72578,0 -41.33661,0c-5.18103,0 -12.24227,0 -16.93307,0c-2.96308,0 -4.98031,0 -4.98031,0v-63.25h63.25z" data-paper-data="{&quot;index&quot;:null}" fill="#825800"/><path d="M271.625,211.625h-63.25v-16.93307l9.96063,7.9685l26.77781,-0.0953l12.19253,-7.62721l14.31903,0.25204z" data-paper-data="{&quot;index&quot;:null}" fill="#04ff1a"/><path d="M271.625,163.31594l-3.22957,1.24811l-1.98973,-7.62721l-6.37037,5.88107l-3.7425,0.49803v-14.94094h15.33218z" data-paper-data="{&quot;index&quot;:null}" fill="#04ff1a"/><path d="M208.375,163.37784v-15.00284h16.93307l1.2528,3.54969l1.74196,5.60977l-3.24075,2.44691l-0.25204,3.39646z" fill="#04ff1a"/><path d="M256.68406,211.625l-1.24811,-13.32297l7.62721,-8.20828l-6.53974,-26.27978l0.16064,-15.43898h14.94094v63.25z" data-paper-data="{&quot;index&quot;:null}" fill="#04ff1a"/></g></g></svg>