<svg version="1.1" xmlns="http://www.w3.org/2000/svg" xmlns:xlink="http://www.w3.org/1999/xlink" width="47.34396" height="87.55484" viewBox="0,0,47.34396,87.55484"><g transform="translate(-216.42309,-131.27904)"><g data-paper-data="{&quot;isPaintingLayer&quot;:true}" fill="none" fill-rule="nonzero" stroke="#ff0000" stroke-linejoin="miter" stroke-miterlimit="10" stroke-dasharray="" stroke-dashoffset="0" style="mix-blend-mode: normal"><path d="M239.54461,192.48139l0.91077,-24.96269" stroke-width="5" stroke-linecap="round"/><path d="M228.50888,187.56243l3.51526,-9.31007l6.41473,-10.62371" stroke-width="5" stroke-linecap="round"/><path d="M228.52578,155.12505c0,-6.33703 5.13718,-11.47422 11.47422,-11.47422c6.33703,0 11.47422,5.13718 11.47422,11.47422c0,6.33703 -5.13718,11.47422 -11.47422,11.47422c-6.33703,0 -11.47422,-5.13718 -11.47422,-11.47422z" stroke-width="5" stroke-linecap="butt"/><path d="M239.73057,193.25191l-6.76179,13.14001l-12.89634,-2.5855" stroke-width="5" stroke-linecap="round"/><path d="M253.71423,172.3987l-7.20247,6.63122l-5.72281,-11.4013" data-paper-data="{&quot;index&quot;:null}" stroke-width="5" stroke-linecap="round"/><path d="M240.17272,192.94606l3.5021,14.24301l0.33809,9.09159" data-paper-data="{&quot;index&quot;:null}" stroke-width="5" stroke-linecap="round"/><path d="M216.42309,218.83388v-87.55484h47.34396v87.55484z" stroke-width="0" stroke-linecap="butt"/></g></g></svg>