<svg version="1.1" xmlns="http://www.w3.org/2000/svg" xmlns:xlink="http://www.w3.org/1999/xlink" width="47.34396" height="88.81207" viewBox="0,0,47.34396,88.81207"><g transform="translate(-216.42309,-131.27904)"><g data-paper-data="{&quot;isPaintingLayer&quot;:true}" fill="none" fill-rule="nonzero" stroke="#ff0000" stroke-linejoin="miter" stroke-miterlimit="10" stroke-dasharray="" stroke-dashoffset="0" style="mix-blend-mode: normal"><path d="M240.45538,167.33149l-0.91077,24.96269" stroke-width="5" stroke-linecap="round"/><path d="M230.38095,187.74965l1.6432,-9.68448l6.41473,-10.62371" stroke-width="5" stroke-linecap="round"/><path d="M228.52578,154.93785c0,-6.33703 5.13718,-11.47422 11.47422,-11.47422c6.33703,0 11.47422,5.13718 11.47422,11.47422c0,6.33703 -5.13718,11.47422 -11.47422,11.47422c-6.33703,0 -11.47422,-5.13718 -11.47422,-11.47422z" stroke-width="5" stroke-linecap="butt"/><path d="M239.84974,193.86398l1.01592,12.46309l-11.0653,5.17981" stroke-width="5" stroke-linecap="round"/><path d="M254.25014,175.4324l-7.51212,6.27828l-5.1696,-11.66257" data-paper-data="{&quot;index&quot;:null}" stroke-width="5" stroke-linecap="round"/><path d="M239.6111,193.13328l2.37886,14.0558l-3.03162,10.40204" data-paper-data="{&quot;index&quot;:null}" stroke-width="5" stroke-linecap="round"/><path d="M216.42309,218.83388v-87.55484h47.34396v87.55484z" stroke-width="0" stroke-linecap="butt"/></g></g></svg>