<svg version="1.1" xmlns="http://www.w3.org/2000/svg" xmlns:xlink="http://www.w3.org/1999/xlink" width="47.34396" height="87.55484" viewBox="0,0,47.34396,87.55484"><g transform="translate(-216.42309,-131.27904)"><g data-paper-data="{&quot;isPaintingLayer&quot;:true}" fill="none" fill-rule="nonzero" stroke="#ff0000" stroke-linejoin="miter" stroke-miterlimit="10" stroke-dasharray="" stroke-dashoffset="0" style="mix-blend-mode: normal"><path d="M239.54461,189.48612l0.91077,-24.96269" stroke-width="5" stroke-linecap="round"/><path d="M233.18904,183.81835l-2.10093,-8.56125l7.35076,-10.62371" stroke-width="5" stroke-linecap="round"/><path d="M228.52578,152.12977c0,-6.33703 5.13718,-11.28701 11.47422,-11.28701c6.33703,0 11.47422,4.94997 11.47422,11.28701c0,6.33703 -5.13718,11.47422 -11.47422,11.47422c-6.33703,0 -11.47422,-5.13718 -11.47422,-11.47422z" stroke-width="5" stroke-linecap="butt"/><path d="M239.84974,190.86871l15.618,4.78764l1.85193,11.54482" stroke-width="5" stroke-linecap="round"/><path d="M256.30941,173.37317l-10.50742,5.52946l-4.23357,-11.66257" data-paper-data="{&quot;index&quot;:null}" stroke-width="5" stroke-linecap="round"/><path d="M239.6111,190.32521l-3.98615,12.37095l-13.70237,5.34745" data-paper-data="{&quot;index&quot;:null}" stroke-width="5" stroke-linecap="round"/><path d="M216.42309,218.83388v-87.55484h47.34396v87.55484z" stroke-width="0" stroke-linecap="butt"/></g></g></svg>