<svg version="1.1" xmlns="http://www.w3.org/2000/svg" xmlns:xlink="http://www.w3.org/1999/xlink" width="281.53911" height="123.37645" viewBox="0,0,281.53911,123.37645"><g transform="translate(-85.58034,-132.08957)"><g data-paper-data="{&quot;isPaintingLayer&quot;:true}" fill-rule="nonzero" stroke-linejoin="miter" stroke-miterlimit="10" stroke-dasharray="" stroke-dashoffset="0" style="mix-blend-mode: normal"><path d="M163.03943,251.94015l-18.13378,-18.75949l-11.29397,-6.43594l-5.28574,-23.6934l-9.19881,-5.21796l-1.48889,-10.98406l-10.49899,-2.57876l-14.47205,-40.10327l265.24922,-0.98423l-17.76232,27.03675l-13.96748,11.14563l-8.10537,25.24989l-11.75866,3.44741l-1.0284,16.03843l-10.63023,4.93877l-5.86621,18.71555z" fill="#7d5757" stroke="#7d5314" stroke-width="7" stroke-linecap="butt"/><path d="M166.1411,251.74821l13.22944,0.0062" fill="none" stroke="#aa711b" stroke-width="2.5" stroke-linecap="round"/><path d="M95.58034,142.74919c0,0 99.11826,-0.24998 144.78638,-0.36516c41.00934,-0.10343 116.75273,-0.29446 116.75273,-0.29446" fill="none" stroke="#40c737" stroke-width="20" stroke-linecap="round"/><path d="M94.85665,138.92543l34.42835,0.0619" fill="none" stroke="#49de3e" stroke-width="5" stroke-linecap="round"/><path d="M94.9095,144.91486l25.8533,0.0619" fill="none" stroke="#49de3e" stroke-width="2.5" stroke-linecap="round"/><path d="M95.29217,149.91487l20.90615,0.0619" fill="none" stroke="#49de3e" stroke-width="2.5" stroke-linecap="round"/></g></g></svg>