<svg version="1.1" xmlns="http://www.w3.org/2000/svg" xmlns:xlink="http://www.w3.org/1999/xlink" width="47.34396" height="87.55484" viewBox="0,0,47.34396,87.55484"><g transform="translate(-216.32802,-136.22258)"><g data-paper-data="{&quot;isPaintingLayer&quot;:true}" fill="none" fill-rule="nonzero" stroke-linejoin="miter" stroke-miterlimit="10" stroke-dasharray="" stroke-dashoffset="0" style="mix-blend-mode: normal"><path d="M240.28955,193.18189l-1.90076,-24.90688" stroke="#000000" stroke-width="5" stroke-linecap="round"/><path d="M236.57466,168.53597l-5.69317,12.90473l-6.89634,3.65848" stroke="#000000" stroke-width="5" stroke-linecap="round"/><path d="M239.73055,192.87752l-5.74316,13.14383l-5.42343,7.13024" stroke="#000000" stroke-width="5" stroke-linecap="round"/><path d="M239.14439,168.32368l6.36009,9.33965l1.6787,10.56149" data-paper-data="{&quot;index&quot;:null}" stroke="#000000" stroke-width="5" stroke-linecap="round"/><path d="M240.40722,192.87748l8.42575,20.73088" data-paper-data="{&quot;index&quot;:null}" stroke="#000000" stroke-width="5" stroke-linecap="round"/><path d="M226.34872,156.83453c-0.52172,-6.31552 4.17509,-11.8582 10.49062,-12.37992c6.31552,-0.52172 11.8582,4.17509 12.37992,10.49062c0.52172,6.31552 -4.17509,11.8582 -10.49062,12.37992c-6.31552,0.52172 -11.8582,-4.17509 -12.37992,-10.49062z" stroke="#000000" stroke-width="5" stroke-linecap="butt"/><path d="M216.32802,223.77742v-87.55484h47.34396v87.55484z" stroke="none" stroke-width="0" stroke-linecap="butt"/></g></g></svg>