<svg version="1.1" xmlns="http://www.w3.org/2000/svg" xmlns:xlink="http://www.w3.org/1999/xlink" width="47.34396" height="87.55484" viewBox="0,0,47.34396,87.55484"><g transform="translate(-216.42309,-131.27904)"><g data-paper-data="{&quot;isPaintingLayer&quot;:true}" fill="none" fill-rule="nonzero" stroke-linejoin="miter" stroke-miterlimit="10" stroke-dasharray="" stroke-dashoffset="0" style="mix-blend-mode: normal"><path d="M216.42309,218.83388v-87.55484h47.34396v87.55484z" stroke="none" stroke-width="0" stroke-linecap="butt"/><path d="M239.88368,192.4968l0.15623,-24.97881" stroke="#000000" stroke-width="5" stroke-linecap="round"/><path d="M240.95131,170.59792l-14.95882,9.19455l1.96203,-8.34189" stroke="#000000" stroke-width="5" stroke-linecap="round"/><path d="M239.73055,192.87756l-1.40349,12.00181l-5.88024,7.13024" stroke="#000000" stroke-width="5" stroke-linecap="round"/><path d="M240.78894,167.62864l5.56958,9.83156l0.80349,10.66384" data-paper-data="{&quot;index&quot;:null}" stroke="#000000" stroke-width="5" stroke-linecap="round"/><path d="M239.95042,192.64909l7.94301,10.62062l2.08157,9.42506" data-paper-data="{&quot;index&quot;:null}" stroke="#000000" stroke-width="5" stroke-linecap="round"/><path d="M228.98259,155.12505c0,-6.33703 5.13718,-11.47422 11.47422,-11.47422c6.33703,0 11.47422,5.13718 11.47422,11.47422c0,6.33703 -5.13718,11.47422 -11.47422,11.47422c-6.33703,0 -11.47422,-5.13718 -11.47422,-11.47422z" stroke="#000000" stroke-width="5" stroke-linecap="butt"/></g></g></svg>