<svg version="1.1" xmlns="http://www.w3.org/2000/svg" xmlns:xlink="http://www.w3.org/1999/xlink" width="47.34396" height="88.81207" viewBox="0,0,47.34396,88.81207"><g transform="translate(-216.42309,-131.27903)"><g data-paper-data="{&quot;isPaintingLayer&quot;:true}" fill="none" fill-rule="nonzero" stroke-linejoin="miter" stroke-miterlimit="10" stroke-dasharray="" stroke-dashoffset="0" style="mix-blend-mode: normal"><path d="M240.45538,167.33149l-0.91077,24.96269" stroke="#000000" stroke-width="5" stroke-linecap="round"/><path d="M234.8739,187.00081l-2.84975,-8.93565l6.41473,-10.62371" stroke="#000000" stroke-width="5" stroke-linecap="round"/><path d="M228.52578,154.93785c0,-6.33703 5.13718,-11.47422 11.47422,-11.47422c6.33703,0 11.47422,5.13718 11.47422,11.47422c0,6.33703 -5.13718,11.47422 -11.47422,11.47422c-6.33703,0 -11.47422,-5.13718 -11.47422,-11.47422z" stroke="#000000" stroke-width="5" stroke-linecap="butt"/><path d="M239.84974,193.86397l7.00652,11.71427l-12.56295,4.05657" stroke="#000000" stroke-width="5" stroke-linecap="round"/><path d="M250.13161,179.92534l-9.19698,3.28298l0.63379,-13.16022" data-paper-data="{&quot;index&quot;:null}" stroke="#000000" stroke-width="5" stroke-linecap="round"/><path d="M239.23669,193.50768l-0.99085,13.49418l-2.47,10.58925" data-paper-data="{&quot;index&quot;:null}" stroke="#000000" stroke-width="5" stroke-linecap="round"/><path d="M216.42309,218.83388v-87.55484h47.34396v87.55484z" stroke="none" stroke-width="0" stroke-linecap="butt"/></g></g></svg>