<svg version="1.1" xmlns="http://www.w3.org/2000/svg" xmlns:xlink="http://www.w3.org/1999/xlink" width="47.34396" height="88.62486" viewBox="0,0,47.34396,88.62486"><g transform="translate(-216.42309,-131.27904)"><g data-paper-data="{&quot;isPaintingLayer&quot;:true}" fill="none" fill-rule="nonzero" stroke-linejoin="miter" stroke-miterlimit="10" stroke-dasharray="" stroke-dashoffset="0" style="mix-blend-mode: normal"><path d="M243.7666,186.10313l-7.1377,-7.76219l4.37791,-8.85448" data-paper-data="{&quot;index&quot;:null}" stroke="#ff0000" stroke-width="5" stroke-linecap="round"/><path d="M239.35742,192.10697l0.91077,-24.96269" stroke="#ff0000" stroke-width="5" stroke-linecap="round"/><path d="M242.11672,189.16101l-7.72084,-5.15378l4.47172,-13.82317" stroke="#ff0000" stroke-width="5" stroke-linecap="round"/><path d="M228.5258,154.75065c0,-6.33703 5.13718,-11.47422 11.47422,-11.47422c6.33703,0 11.47422,5.13718 11.47422,11.47422c0,6.33703 -5.13718,11.47422 -11.47422,11.47422c-6.33703,0 -11.47422,-5.13718 -11.47422,-11.47422z" stroke="#ff0000" stroke-width="5" stroke-linecap="butt"/><path d="M239.66255,193.48957l3.82401,13.02471l-3.20263,6.67746" stroke="#ff0000" stroke-width="5" stroke-linecap="round"/><path d="M239.61112,192.94606l-3.05012,14.24301l-6.40133,10.21483" data-paper-data="{&quot;index&quot;:null}" stroke="#ff0000" stroke-width="5" stroke-linecap="round"/><path d="M216.42309,218.83388v-87.55484h47.34396v87.55484z" stroke="none" stroke-width="0" stroke-linecap="butt"/></g></g></svg>