<svg version="1.1" xmlns="http://www.w3.org/2000/svg" xmlns:xlink="http://www.w3.org/1999/xlink" width="1485.58813" height="1267.46056" viewBox="0,0,1485.58813,1267.46056"><defs><radialGradient cx="241.53581" cy="171.33146" r="51.71429" gradientUnits="userSpaceOnUse" id="color-1"><stop offset="0" stop-color="#ffffff"/><stop offset="1" stop-color="#ffffff" stop-opacity="0"/></radialGradient></defs><g transform="translate(502.79407,453.73028)"><g data-paper-data="{&quot;isPaintingLayer&quot;:true}" fill-rule="nonzero" stroke="none" stroke-width="0" stroke-linecap="butt" stroke-linejoin="miter" stroke-miterlimit="10" stroke-dasharray="" stroke-dashoffset="0" style="mix-blend-mode: normal"><g><path d="M217.67866,171.33146c0,-13.17594 10.68121,-23.85714 23.85714,-23.85714c13.17594,0 23.85714,10.68121 23.85714,23.85714c0,13.17594 -10.68121,23.85714 -23.85714,23.85714c-13.17594,0 -23.85714,-10.68121 -23.85714,-23.85714z" fill="#ffffff"/><path d="M189.8215,171.33146c0,-28.56101 23.15327,-51.71429 51.71429,-51.71429c28.56101,0 51.71429,23.15327 51.71429,51.71429c0,28.56101 -23.15327,51.71429 -51.71429,51.71429c-28.56101,0 -51.71429,-23.15327 -51.71429,-51.71429z" fill="url(#color-1)"/><path d="M223.0343,184.79392l-3.003,-16.30202l762.76276,-17.93222v57.05706z" fill="#ffffff"/><path d="M259.69802,113.26125l14.85952,3.69639l-310.78564,696.77264l-47.52005,-22.44137z" fill="#ffffff"/><path d="M238.57406,152.97985l-9.85662,11.71818l-489.00057,-585.62639l41.05855,-32.80192z" fill="#ffffff"/><path d="M225.45661,170.45695l3.44412,3.67727l-627.48057,-17.36696l-3.39336,-12.57666z" fill="#ffffff"/><path d="M248.43834,175.08951l-6.77229,-6.51974l424.63293,-198.41366l17.77481,25.44294z" fill="#ffffff"/><path d="M232.53702,155.68698l6.28426,-11.73199l433.42167,502.47061l-27.84666,33.99096z" fill="#ffffff"/><path d="M225.10271,180.07995l7.5681,13.31137l-718.95488,255.31102l-16.50999,-49.89179z" fill="#ffffff"/><path d="M230.3298,165.27472l-1.08894,-4.91919l531.00802,334.75956l-3.49063,12.55002z" fill="#ffffff"/><path d="M177.22196,331.97643l-15.02019,-2.97701l276.89414,-710.92156l48.54496,20.12852z" fill="#ffffff"/></g></g></g></svg>