<svg version="1.1" xmlns="http://www.w3.org/2000/svg" xmlns:xlink="http://www.w3.org/1999/xlink" width="490.35182" height="367.20104" viewBox="0,0,490.35182,367.20104"><g transform="translate(3.85182,1.70104)"><g data-paper-data="{&quot;isPaintingLayer&quot;:true}" fill="#777777" fill-rule="nonzero" stroke="none" stroke-width="0" stroke-linecap="butt" stroke-linejoin="miter" stroke-miterlimit="10" stroke-dasharray="" stroke-dashoffset="0" style="mix-blend-mode: normal"><path d="M110.75,307.5v-234h22.5v234z"/><path d="M287.5,145.5v-93h31v93z"/><path d="M235.5,356.5v-148h14v148z"/><path d="M311.54499,291.5v-80h26v80z"/><path d="M388.5,319.5v-29h92v29z"/><path d="M180.5,142.5v-140.15078h28v140.15078z"/><path d="M402.5,232.5v-190h24v190z"/><path d="M-3.5,7.5v-9.20104h490v9.20104z"/><path d="M470.5,364.57143v-359.07143h15v359.07143z"/><path d="M-1.90208,365.5v-14h488.40208v14z"/><path d="M-3.85182,363.5v-364.22617h10.32669v364.22617z"/><path d="M309.5,108.5v-26h103v26z"/><path d="M40.5,134.5v-26h72v26z"/><path d="M42.5,223c0,-11.32184 9.17816,-20.5 20.5,-20.5c11.32184,0 20.5,9.17816 20.5,20.5c0,11.32184 -9.17816,20.5 -20.5,20.5c-11.32184,0 -20.5,-9.17816 -20.5,-20.5z"/></g></g></svg>